<svg width="37" height="37" viewBox="0 0 37 37" fill="none" xmlns="http://www.w3.org/2000/svg">
<circle cx="18.5" cy="18.5" r="18.5" fill="white"/>
<path d="M13.3536 18.6464C13.1583 18.4512 12.8417 18.4512 12.6464 18.6464C12.4512 18.8417 12.4512 19.1583 12.6464 19.3536L13.3536 18.6464ZM17.9497 23.9497L17.5962 24.3033C17.7915 24.4986 18.108 24.4986 18.3033 24.3033L17.9497 23.9497ZM28.9103 13.6967C29.1056 13.5014 29.1056 13.1849 28.9104 12.9896C28.7151 12.7943 28.3985 12.7943 28.2033 12.9896L28.9103 13.6967ZM8.40336 18.6967C8.2081 18.5015 7.89151 18.5015 7.69625 18.6967C7.50099 18.892 7.50099 19.2086 7.69625 19.4038L8.40336 18.6967ZM12.646 24.3536C12.8413 24.5489 13.1578 24.5489 13.3531 24.3536C13.5484 24.1583 13.5484 23.8417 13.3531 23.6465L12.646 24.3536ZM23.9596 13.747C24.1549 13.5517 24.1549 13.2351 23.9596 13.0399C23.7643 12.8446 23.4477 12.8446 23.2525 13.0399L23.9596 13.747ZM17.9492 18.3432C17.7539 18.5384 17.7539 18.855 17.9492 19.0503C18.1444 19.2455 18.461 19.2455 18.6563 19.0503L17.9492 18.3432ZM12.6464 19.3536L17.5962 24.3033L18.3033 23.5962L13.3536 18.6464L12.6464 19.3536ZM18.3033 24.3033L28.9103 13.6967L28.2033 12.9896L17.5962 23.5962L18.3033 24.3033ZM7.69625 19.4038L12.646 24.3536L13.3531 23.6465L8.40336 18.6967L7.69625 19.4038ZM23.2525 13.0399L17.9492 18.3432L18.6563 19.0503L23.9596 13.747L23.2525 13.0399Z" fill="#2D6AC8"/>
</svg>
