<svg width="16" height="16" viewBox="0 0 16 16" fill="none" xmlns="http://www.w3.org/2000/svg">
<path d="M14.6666 12V4V3.99726C14.6666 3.06566 14.6666 2.59958 14.4852 2.24341C14.3254 1.9298 14.0701 1.67482 13.7565 1.51503C13.3999 1.33337 12.9336 1.33337 12.0001 1.33337H4.00014C3.06672 1.33337 2.59966 1.33337 2.24314 1.51503C1.92954 1.67482 1.67476 1.9298 1.51497 2.24341C1.33331 2.59993 1.33331 3.06658 1.33331 4V12C1.33331 12.9334 1.33331 13.4002 1.51497 13.7567C1.67476 14.0703 1.92954 14.3252 2.24314 14.485C2.59966 14.6667 3.06672 14.6667 4.00014 14.6667H12.0001C12.9336 14.6667 13.3999 14.6667 13.7565 14.485C14.0701 14.3252 14.3254 14.0703 14.4852 13.7567C14.6666 13.4006 14.6666 12.9343 14.6666 12.0027V12Z" stroke="white" stroke-linecap="round" stroke-linejoin="round"/>
</svg>
