<svg width="16" height="16" viewBox="0 0 16 16" fill="none" xmlns="http://www.w3.org/2000/svg">
<path d="M4.66668 7.99992L7.16668 10.4999L11.3333 5.49992M14.6667 3.99988V11.9999C14.6667 12.9333 14.6669 13.4001 14.4852 13.7566C14.3254 14.0702 14.0701 14.3251 13.7565 14.4849C13.4 14.6666 12.9336 14.6666 12.0002 14.6666H4.00017C3.06675 14.6666 2.59969 14.6666 2.24317 14.4849C1.92957 14.3251 1.67479 14.0702 1.515 13.7566C1.33334 13.4001 1.33334 12.9333 1.33334 11.9999V3.99988C1.33334 3.06646 1.33334 2.59981 1.515 2.24329C1.67479 1.92968 1.92957 1.6747 2.24317 1.51491C2.59969 1.33325 3.06675 1.33325 4.00017 1.33325H12.0002C12.9336 1.33325 13.4 1.33325 13.7565 1.51491C14.0701 1.6747 14.3254 1.92968 14.4852 2.24329C14.6669 2.59981 14.6667 3.06646 14.6667 3.99988Z" stroke="white" stroke-linecap="round" stroke-linejoin="round"/>
</svg>
