<svg width="30" height="30" viewBox="0 0 30 30" fill="none" xmlns="http://www.w3.org/2000/svg">
<rect width="30" height="30" fill="#97AAC6"/>
<path d="M18 19H14V27H18V19Z" fill="white"/>
<path d="M18 2H14V10H18V2Z" fill="white"/>
<path d="M20 12V16H28V12H20Z" fill="white"/>
<path d="M3 12L3 16H11L11 12H3Z" fill="white"/>
<path d="M19.8286 16.1718L17 19L22.6573 24.6565L25.4859 21.8282L19.8286 16.1718Z" fill="white"/>
<path d="M7.82863 4.17177L5 7L10.6573 12.6565L13.4859 9.82823L7.82863 4.17177Z" fill="white"/>
<path d="M17.1714 10.1718L20 13L25.6573 7.34354L22.8286 4.51532L17.1714 10.1718Z" fill="white"/>
<path d="M5.17137 22.1718L8 25L13.6573 19.3435L10.8286 16.5153L5.17137 22.1718Z" fill="white"/>
</svg>
