<svg width="28" height="30" viewBox="0 0 28 30" fill="none" xmlns="http://www.w3.org/2000/svg">
<g clip-path="url(#clip0_1_297)">
<rect width="27.6923" height="30" transform="translate(0.0512085)" fill="#97AAC6"/>
<path d="M13.5512 1L14.4023 10.7955L18.5918 1.88611L15.9897 11.3594L23.0269 4.39946L17.2825 12.4228L26.3 8.25L18.1172 13.8728L28.0512 12.9867L18.4118 15.5L28.0512 18.0295L18.1172 17.1434L26.3 22.75L17.2825 18.5772L23.0269 26.6167L15.9897 19.6566L18.5918 29.13L14.4023 20.2205L13.5512 30L12.7002 20.2205L8.51061 29.13L11.1291 19.6566L4.0755 26.6167L9.81987 18.5772L0.802367 22.75L8.9852 17.1434L-0.948792 18.0295L8.69057 15.5L-0.948792 12.9867L8.9852 13.8728L0.802367 8.25L9.81987 12.4228L4.0755 4.39946L11.1291 11.3594L8.51061 1.88611L12.7002 10.7955L13.5512 1Z" fill="white"/>
</g>
<defs>
<clipPath id="clip0_1_297">
<rect width="27.6923" height="30" fill="white" transform="translate(0.0512085)"/>
</clipPath>
</defs>
</svg>
