<svg width="161" height="151" viewBox="0 0 161 151" fill="none" xmlns="http://www.w3.org/2000/svg">
<path d="M74.112 66.4956C103.426 44.831 124.272 23.3009 120.672 18.4068C117.073 13.5128 90.3914 27.108 61.0775 48.7727C31.7636 70.4373 10.9179 91.9674 14.5172 96.8615C18.1166 101.756 44.7981 88.1603 74.112 66.4956Z" stroke="white" stroke-opacity="0.12" stroke-miterlimit="10"/>
<path d="M67.112 57.4956C96.4259 35.831 117.272 14.3009 113.672 9.40685C110.073 4.5128 83.3914 18.108 54.0775 39.7727C24.7636 61.4373 3.91787 82.9674 7.51724 87.8615C11.1166 92.7555 37.7981 79.1603 67.112 57.4956Z" stroke="white" stroke-opacity="0.12" stroke-miterlimit="10"/>
<path d="M107.112 111.496C136.426 89.831 157.272 68.3009 153.672 63.4068C150.073 58.5128 123.391 72.108 94.0775 93.7727C64.7636 115.437 43.9179 136.967 47.5172 141.861C51.1166 146.756 77.7981 133.16 107.112 111.496Z" stroke="white" stroke-opacity="0.12" stroke-miterlimit="10"/>
<path d="M100.112 102.496C129.426 80.831 150.272 59.3009 146.672 54.4068C143.073 49.5128 116.391 63.108 87.0775 84.7727C57.7636 106.437 36.9179 127.967 40.5172 132.861C44.1166 137.756 70.7981 124.16 100.112 102.496Z" stroke="white" stroke-opacity="0.12" stroke-miterlimit="10"/>
<path d="M94.112 93.4956C123.426 71.831 144.272 50.3009 140.672 45.4068C137.073 40.5128 110.391 54.108 81.0775 75.7727C51.7636 97.4373 30.9179 118.967 34.5172 123.861C38.1166 128.756 64.7981 115.16 94.112 93.4956Z" stroke="white" stroke-opacity="0.12" stroke-miterlimit="10"/>
<path d="M87.112 84.4956C116.426 62.831 137.272 41.3009 133.672 36.4068C130.073 31.5128 103.391 45.108 74.0775 66.7727C44.7636 88.4373 23.9179 109.967 27.5172 114.861C31.1166 119.756 57.7981 106.16 87.112 84.4956Z" stroke="white" stroke-opacity="0.12" stroke-miterlimit="10"/>
<path d="M80.112 75.4956C109.426 53.831 130.272 32.3009 126.672 27.4068C123.073 22.5128 96.3914 36.108 67.0775 57.7727C37.7636 79.4373 16.9179 100.967 20.5172 105.861C24.1166 110.756 50.7981 97.1603 80.112 75.4956Z" stroke="white" stroke-opacity="0.12" stroke-miterlimit="10"/>
</svg>
