<svg width="160" height="161" viewBox="0 0 160 161" fill="none" xmlns="http://www.w3.org/2000/svg">
<path d="M44.4247 117.459C38.2439 116.067 32.3155 113.032 27.3474 108.415C12.2607 94.3942 11.4448 70.6843 25.5274 55.53C39.6101 40.3757 63.3156 39.4542 78.4023 53.4746C83.3704 58.0915 86.8312 63.7821 88.6723 69.8445C76.0889 67.024 62.32 70.7807 52.8748 80.9446C43.4297 91.1084 40.6909 105.116 44.4247 117.459Z" stroke="white" stroke-opacity="0.1" stroke-miterlimit="10"/>
<path d="M117.397 115.63C116.005 121.811 112.97 127.74 108.353 132.708C94.3329 147.795 70.6235 148.611 55.4695 134.528C40.3155 120.445 39.3939 96.739 53.414 81.6521C58.0309 76.6839 63.7213 73.223 69.7836 71.3819C66.9631 83.9655 70.7198 97.7347 80.8835 107.18C91.0929 116.668 105.054 119.364 117.397 115.63Z" stroke="white" stroke-opacity="0.1" stroke-miterlimit="10"/>
<path d="M114.651 42.7227C120.832 44.1152 126.76 47.1503 131.729 51.7673C146.815 65.7877 147.631 89.4976 133.549 104.652C119.466 119.806 95.7603 120.728 80.6737 106.707C75.7056 102.09 72.2448 96.3997 70.4037 90.3373C82.9871 93.1579 96.756 89.4012 106.201 79.2373C115.601 69.031 118.385 55.0662 114.651 42.7227Z" stroke="white" stroke-opacity="0.1" stroke-miterlimit="10"/>
<path d="M42.6626 45.4037C44.0551 39.2228 47.0901 33.2943 51.707 28.3261C65.727 13.2391 89.4365 12.4232 104.59 26.5062C119.744 40.5891 120.666 64.2951 106.646 79.382C102.029 84.3502 96.3386 87.8111 90.2763 89.6523C93.0968 77.0686 89.3402 63.2994 79.1765 53.854C68.967 44.3661 55.0058 41.6698 42.6626 45.4037Z" stroke="white" stroke-opacity="0.1" stroke-miterlimit="10"/>
</svg>
