<svg width="137" height="129" viewBox="0 0 137 129" fill="none" xmlns="http://www.w3.org/2000/svg">
<path d="M63.2539 56.9956C88.1117 38.5937 105.746 20.2476 102.64 16.0185C99.5353 11.7894 76.8668 23.2786 52.009 41.6805C27.1512 60.0823 9.51726 78.4284 12.6225 82.6575C15.7277 86.8867 38.3961 75.3974 63.2539 56.9956Z" stroke="#828282" stroke-opacity="0.11" stroke-miterlimit="10"/>
<path d="M57.2539 48.9956C82.1117 30.5937 99.7456 12.2476 96.6404 8.01848C93.5352 3.78933 70.8668 15.2786 46.009 33.6805C21.1512 52.0823 3.51726 70.4284 6.62246 74.6575C9.72766 78.8867 32.3961 67.3974 57.2539 48.9956Z" stroke="#828282" stroke-opacity="0.11" stroke-miterlimit="10"/>
<path d="M91.2539 94.9956C116.112 76.5937 133.746 58.2476 130.64 54.0185C127.535 49.7894 104.867 61.2786 80.009 79.6805C55.1512 98.0823 37.5173 116.428 40.6225 120.658C43.7277 124.887 66.3961 113.397 91.2539 94.9956Z" stroke="#828282" stroke-opacity="0.11" stroke-miterlimit="10"/>
<path d="M85.2539 86.9956C110.112 68.5937 127.746 50.2476 124.64 46.0185C121.535 41.7894 98.8668 53.2786 74.009 71.6805C49.1512 90.0823 31.5173 108.428 34.6225 112.658C37.7277 116.887 60.3961 105.397 85.2539 86.9956Z" stroke="#828282" stroke-opacity="0.11" stroke-miterlimit="10"/>
<path d="M79.2539 79.9956C104.112 61.5937 121.746 43.2476 118.64 39.0185C115.535 34.7894 92.8668 46.2786 68.009 64.6805C43.1512 83.0823 25.5173 101.428 28.6225 105.658C31.7277 109.887 54.3961 98.3974 79.2539 79.9956Z" stroke="#828282" stroke-opacity="0.11" stroke-miterlimit="10"/>
<path d="M74.2539 71.9956C99.1117 53.5937 116.746 35.2476 113.64 31.0185C110.535 26.7894 87.8668 38.2786 63.009 56.6805C38.1512 75.0823 20.5173 93.4284 23.6225 97.6575C26.7277 101.887 49.3961 90.3974 74.2539 71.9956Z" stroke="#828282" stroke-opacity="0.11" stroke-miterlimit="10"/>
<path d="M68.2539 63.9956C93.1117 45.5937 110.746 27.2476 107.64 23.0185C104.535 18.7894 81.8668 30.2786 57.009 48.6805C32.1512 67.0823 14.5173 85.4284 17.6225 89.6575C20.7277 93.8867 43.3961 82.3974 68.2539 63.9956Z" stroke="#828282" stroke-opacity="0.11" stroke-miterlimit="10"/>
</svg>
