<svg width="167" height="166" viewBox="0 0 167 166" fill="none" xmlns="http://www.w3.org/2000/svg">
<path d="M45.6998 123.172C39.3672 121.937 33.3499 118.994 28.3765 114.383C13.2738 100.38 13.2228 75.8772 28.2628 59.7299C43.3028 43.5826 67.7995 41.84 82.9022 55.843C87.8756 60.4543 91.2575 66.2265 92.9554 72.4373C80.0625 69.9381 65.7266 74.2832 55.6393 85.1131C45.5521 95.943 42.258 110.526 45.6998 123.172Z" stroke="white" stroke-opacity="0.1" stroke-miterlimit="10"/>
<path d="M121.225 118.688C119.564 125.148 116.213 131.406 111.26 136.723C96.2203 152.87 71.6688 154.562 56.4987 140.496C41.3286 126.431 41.2228 101.877 56.2628 85.7299C61.2156 80.4125 67.2248 76.6202 73.5608 74.4944C70.1938 87.646 73.587 101.793 83.7615 111.226C93.9819 120.703 108.325 123.001 121.225 118.688Z" stroke="white" stroke-opacity="0.1" stroke-miterlimit="10"/>
<path d="M120.891 43.3625C127.223 44.5974 133.241 47.5402 138.214 52.1514C153.317 66.1545 153.368 90.6574 138.328 106.805C123.288 122.952 98.7909 124.695 83.6882 110.692C78.7149 106.08 75.3329 100.308 73.635 94.0973C86.5279 96.5965 100.864 92.2514 110.951 81.4215C120.993 70.5493 124.332 56.0086 120.891 43.3625Z" stroke="white" stroke-opacity="0.1" stroke-miterlimit="10"/>
<path d="M46.6665 48.3995C48.3277 41.9394 51.6787 35.6824 56.6314 30.365C71.6714 14.2176 96.2229 12.5258 111.393 26.5914C126.563 40.6569 126.669 65.2106 111.629 81.3579C106.676 86.6753 100.667 90.4677 94.3309 92.5935C97.6979 79.4418 94.3047 65.2952 84.1301 55.8615C73.9098 46.3853 59.5664 44.0867 46.6665 48.3995Z" stroke="white" stroke-opacity="0.1" stroke-miterlimit="10"/>
</svg>
